<svg xmlns="http://www.w3.org/2000/svg" viewBox="0 0 1079.02 150" role="img" aria-label="AI-Ascension">
<title>AI-Ascension</title>
<desc>Wordmark set in Fraunces (outlined). The caret rising from the hyphen is the AI-Ascension glyph.</desc>
<g fill="currentColor" fill-rule="nonzero">
<path id="letters" d="M32.1 90.1L83 90.1L83.3 92L31.5 92ZM37.5 143.4Q37.5 143.6 37.3 143.8Q37.1 144 36.8 144L4.8 144Q4.5 144 4.25 143.8Q4 143.6 4 143.3Q4 143 4.35 142.85Q4.7 142.7 4.9 142.6L8.7 141.5Q11.9 140.4 15.15 136.9Q18.4 133.4 20.6 126.1L52.9 16.1Q54.1 12.2 52.95 9.8Q51.8 7.4 48.8 6.1Q47.7 5.4 47.1 5.2Q46.5 5 46.5 4.6Q46.5 4.2 46.75 4.1Q47 4 47.5 4L86.4 4Q86.8 4 87 4.1Q87.2 4.2 87.2 4.6Q87.2 4.9 86.75 5.2Q86.3 5.5 85 6Q82.7 6.4 82.2 7.35Q81.7 8.3 82.6 10.9L122.8 137.3Q123.6 139.7 125.1 140.9Q126.6 142.1 129 142.4Q129.6 142.6 129.85 142.75Q130.1 142.9 130.1 143.4Q130.1 143.6 129.85 143.8Q129.6 144 129.2 144L85.1 144Q84.7 144 84.45 143.8Q84.2 143.6 84.2 143.4Q84.2 143 84.5 142.85Q84.8 142.7 85.4 142.6L90.1 141.9Q92.6 141.3 93.2 139.95Q93.8 138.6 93 136.1L54.5 14.5L56.9 9.3L22.4 126.4Q21.2 130.5 22.35 133.5Q23.5 136.5 26.35 138.55Q29.2 140.6 33.4 141.7L36.6 142.6Q37.1 142.7 37.3 142.9Q37.5 143.1 37.5 143.4ZM178.16 138.6Q178.16 139.8 179.11 140.45Q180.06 141.1 182.06 141.4L190.16 142.6Q191.36 142.7 191.36 143.4Q191.36 143.6 191.11 143.8Q190.86 144 190.36 144L137.96 144Q137.56 144 137.31 143.8Q137.06 143.6 137.06 143.4Q137.06 142.7 138.16 142.6L146.26 141.4Q148.26 141.1 149.21 140.45Q150.16 139.8 150.16 138.6L150.16 9.4Q150.16 8.2 149.21 7.55Q148.26 6.9 146.26 6.6L138.16 5.4Q137.06 5.3 137.06 4.6Q137.06 4.4 137.31 4.2Q137.56 4 137.96 4L190.36 4Q190.86 4 191.11 4.2Q191.36 4.4 191.36 4.6Q191.36 5.3 190.16 5.4L182.06 6.6Q180.06 6.9 179.11 7.55Q178.16 8.2 178.16 9.4ZM293.36 90.1L344.26 90.1L344.56 92L292.76 92ZM298.76 143.4Q298.76 143.6 298.56 143.8Q298.36 144 298.06 144L266.06 144Q265.76 144 265.51 143.8Q265.26 143.6 265.26 143.3Q265.26 143 265.61 142.85Q265.96 142.7 266.16 142.6L269.96 141.5Q273.16 140.4 276.41 136.9Q279.66 133.4 281.86 126.1L314.16 16.1Q315.36 12.2 314.21 9.8Q313.06 7.4 310.06 6.1Q308.96 5.4 308.36 5.2Q307.76 5 307.76 4.6Q307.76 4.2 308.01 4.1Q308.26 4 308.76 4L347.66 4Q348.06 4 348.26 4.1Q348.46 4.2 348.46 4.6Q348.46 4.9 348.01 5.2Q347.56 5.5 346.26 6Q343.96 6.4 343.46 7.35Q342.96 8.3 343.86 10.9L384.06 137.3Q384.86 139.7 386.36 140.9Q387.86 142.1 390.26 142.4Q390.86 142.6 391.11 142.75Q391.36 142.9 391.36 143.4Q391.36 143.6 391.11 143.8Q390.86 144 390.46 144L346.36 144Q345.96 144 345.71 143.8Q345.46 143.6 345.46 143.4Q345.46 143 345.76 142.85Q346.06 142.7 346.66 142.6L351.36 141.9Q353.86 141.3 354.46 139.95Q355.06 138.6 354.26 136.1L315.76 14.5L318.16 9.3L283.66 126.4Q282.46 130.5 283.61 133.5Q284.76 136.5 287.61 138.55Q290.46 140.6 294.66 141.7L297.86 142.6Q298.36 142.7 298.56 142.9Q298.76 143.1 298.76 143.4ZM432.42 144Q439.32 144 443.37 140.35Q447.42 136.7 447.42 130.9Q447.42 126.8 445.52 123.5Q443.62 120.2 439.07 117.4Q434.52 114.6 426.62 112.1Q414.82 108.2 408.07 103.55Q401.32 98.9 398.52 93.15Q395.72 87.4 395.72 80.1Q395.72 67.6 404.22 60.8Q412.72 54 426.92 54Q433.02 54 436.92 55.15Q440.82 56.3 442.97 57.5Q445.12 58.7 445.72 58.7Q446.62 58.7 449.17 57.5Q451.72 56.3 454.17 55.15Q456.62 54 457.32 54Q457.72 54 458.07 54.15Q458.42 54.3 458.52 55.1L463.82 83.9Q464.02 84.6 463.92 85.15Q463.82 85.7 463.52 85.9Q463.12 86 462.87 85.8Q462.62 85.6 462.32 85.4Q456.62 74.2 451.22 67.75Q445.82 61.3 440.17 58.55Q434.52 55.8 427.82 55.8Q420.32 55.8 416.22 59.55Q412.12 63.3 412.12 69.7Q412.12 73.8 414.07 77.2Q416.02 80.6 420.97 83.45Q425.92 86.3 435.12 89Q445.62 92 452.02 96.4Q458.42 100.8 461.27 106.55Q464.12 112.3 464.12 119.3Q464.12 127.4 460.17 133.4Q456.22 139.4 449.47 142.65Q442.72 145.9 434.22 145.9Q428.72 145.9 424.72 144.35Q420.72 142.8 418.27 141.25Q415.82 139.7 415.32 139.7Q414.62 139.7 412.52 141.15Q410.42 142.6 408.17 144Q405.92 145.4 405.12 145.4Q404.62 145.4 404.17 144.95Q403.72 144.5 403.52 143.5L399.12 118.8Q399.02 117.8 399.12 117.25Q399.22 116.7 399.52 116.6Q399.72 116.4 400.02 116.6Q400.32 116.8 400.52 117.1Q408.52 131.7 416.52 137.85Q424.52 144 432.42 144ZM550.64 77.8Q550.64 83 547.64 86.2Q544.64 89.4 539.34 89.4Q534.04 89.4 530.89 86.1Q527.74 82.8 527.74 76.6L527.74 69.3Q527.74 63.1 524.39 59.5Q521.04 55.9 515.34 55.9Q509.34 55.9 504.94 60.15Q500.54 64.4 498.19 72.1Q495.84 79.8 495.84 90.4Q495.84 103.6 499.54 112.65Q503.24 121.7 509.79 126.35Q516.34 131 524.74 131Q533.84 131 540.34 126.95Q546.84 122.9 549.24 114.1Q549.24 113.7 549.44 113.6Q549.64 113.5 549.84 113.5Q550.04 113.6 550.19 113.8Q550.34 114 550.24 114.4Q548.34 124.5 543.14 131.5Q537.94 138.5 530.24 142.2Q522.54 145.9 512.64 145.9Q501.34 145.9 492.39 140.9Q483.44 135.9 478.24 126.1Q473.04 116.3 473.04 102Q473.04 88.3 478.64 77.5Q484.24 66.7 494.19 60.45Q504.14 54.2 517.24 54.2Q528.04 54.2 535.44 57.25Q542.84 60.3 546.74 65.65Q550.64 71 550.64 77.8ZM637.44 92.3Q637.44 93.1 636.89 93.7Q636.34 94.3 635.24 94.3L573.14 94.3L573.14 92.5L611.94 92.5Q613.64 92.5 613.64 90.6Q613.64 72.8 608.89 64.3Q604.14 55.8 597.34 55.8Q591.74 55.8 587.64 59.65Q583.54 63.5 581.29 71.4Q579.04 79.3 579.04 91.5Q579.04 112.1 587.69 122.4Q596.34 132.7 610.24 132.7Q620.54 132.7 627.64 126.95Q634.74 121.2 635.74 111.4Q635.74 111 635.94 110.85Q636.14 110.7 636.14 110.7Q636.44 110.7 636.69 110.9Q636.94 111.1 636.84 111.7Q636.24 121.5 631.14 129.3Q626.04 137.1 617.59 141.55Q609.14 146 598.54 146Q586.14 146 576.79 140.55Q567.44 135.1 562.14 125.1Q556.84 115.1 556.84 101.9Q556.84 87.6 562.24 76.9Q567.64 66.2 577.39 60.2Q587.14 54.2 600.24 54.2Q611.54 54.2 619.89 59.15Q628.24 64.1 632.84 72.75Q637.44 81.4 637.44 92.3ZM677.04 55.6L677.04 138.5Q677.04 139.8 677.64 140.6Q678.24 141.4 679.54 141.7L684.94 142.6Q686.04 142.8 686.04 143.3Q686.04 144 685.14 144L644.94 144Q644.64 144 644.39 143.8Q644.14 143.6 644.14 143.4Q644.14 143.1 644.34 142.95Q644.54 142.8 645.04 142.7L650.84 141.7Q652.14 141.3 652.69 140.55Q653.24 139.8 653.24 138.5L653.24 65.5Q653.24 64.9 652.94 64.55Q652.64 64.2 651.94 64.2L645.34 64.2Q644.94 64.2 644.74 64.05Q644.54 63.9 644.54 63.5Q644.54 63.1 644.79 63Q645.04 62.9 645.34 62.8L673.94 54.8Q674.94 54.6 675.29 54.5Q675.64 54.4 676.04 54.4Q676.54 54.4 676.79 54.75Q677.04 55.1 677.04 55.6ZM675.14 75.3L674.14 74.3L677.74 71Q687.64 62.3 694.89 58.3Q702.14 54.3 708.44 54.3Q717.54 54.3 722.64 60Q727.74 65.7 729.34 77.9L736.84 137.9Q737.04 139.5 737.69 140.55Q738.34 141.6 739.84 141.8L744.74 142.7Q745.34 142.7 745.54 142.9Q745.74 143.1 745.74 143.4Q745.74 143.6 745.49 143.8Q745.24 144 744.84 144L703.84 144Q702.94 144 702.94 143.3Q702.94 142.9 704.04 142.6L709.74 141.7Q711.34 141.4 711.99 140.4Q712.64 139.4 712.34 137.9L705.84 80.3Q704.84 72.3 702.04 68.55Q699.24 64.8 693.74 64.8Q689.94 64.8 686.39 66.65Q682.84 68.5 678.64 72.2ZM785.68 144Q792.58 144 796.63 140.35Q800.68 136.7 800.68 130.9Q800.68 126.8 798.78 123.5Q796.88 120.2 792.33 117.4Q787.78 114.6 779.88 112.1Q768.08 108.2 761.33 103.55Q754.58 98.9 751.78 93.15Q748.98 87.4 748.98 80.1Q748.98 67.6 757.48 60.8Q765.98 54 780.18 54Q786.28 54 790.18 55.15Q794.08 56.3 796.23 57.5Q798.38 58.7 798.98 58.7Q799.88 58.7 802.43 57.5Q804.98 56.3 807.43 55.15Q809.88 54 810.58 54Q810.98 54 811.33 54.15Q811.68 54.3 811.78 55.1L817.08 83.9Q817.28 84.6 817.18 85.15Q817.08 85.7 816.78 85.9Q816.38 86 816.13 85.8Q815.88 85.6 815.58 85.4Q809.88 74.2 804.48 67.75Q799.08 61.3 793.43 58.55Q787.78 55.8 781.08 55.8Q773.58 55.8 769.48 59.55Q765.38 63.3 765.38 69.7Q765.38 73.8 767.33 77.2Q769.28 80.6 774.23 83.45Q779.18 86.3 788.38 89Q798.88 92 805.28 96.4Q811.68 100.8 814.53 106.55Q817.38 112.3 817.38 119.3Q817.38 127.4 813.43 133.4Q809.48 139.4 802.73 142.65Q795.98 145.9 787.48 145.9Q781.98 145.9 777.98 144.35Q773.98 142.8 771.53 141.25Q769.08 139.7 768.58 139.7Q767.88 139.7 765.78 141.15Q763.68 142.6 761.43 144Q759.18 145.4 758.38 145.4Q757.88 145.4 757.43 144.95Q756.98 144.5 756.78 143.5L752.38 118.8Q752.28 117.8 752.38 117.25Q752.48 116.7 752.78 116.6Q752.98 116.4 753.28 116.6Q753.58 116.8 753.78 117.1Q761.78 131.7 769.78 137.85Q777.78 144 785.68 144ZM859.4 55.6L859.4 138.5Q859.4 139.8 860 140.6Q860.6 141.4 861.9 141.7L867.3 142.6Q868 142.6 868.2 142.85Q868.4 143.1 868.4 143.4Q868.4 143.6 868.15 143.8Q867.9 144 867.5 144L827.3 144Q827 144 826.75 143.8Q826.5 143.6 826.5 143.4Q826.5 143.1 826.7 142.95Q826.9 142.8 827.4 142.7L833.2 141.7Q834.5 141.3 835.05 140.55Q835.6 139.8 835.6 138.5L835.6 65.5Q835.6 64.9 835.3 64.55Q835 64.2 834.3 64.2L827.7 64.2Q827.3 64.2 827.1 64.05Q826.9 63.9 826.9 63.5Q826.9 63.1 827.15 63Q827.4 62.9 827.7 62.8L856.3 54.8Q857.3 54.5 857.65 54.45Q858 54.4 858.4 54.4Q859 54.4 859.2 54.75Q859.4 55.1 859.4 55.6ZM847.1 41.8Q840.8 41.8 836.85 37.6Q832.9 33.4 832.9 27.4Q832.9 21.3 836.85 17.1Q840.8 12.9 847.1 12.9Q853.4 12.9 857.5 17.1Q861.6 21.3 861.6 27.4Q861.6 33.4 857.5 37.6Q853.4 41.8 847.1 41.8ZM920.88 54.2Q934.08 54.2 944.28 60.1Q954.48 66 960.28 76.4Q966.08 86.8 966.08 100.5Q966.08 113.9 960.13 124.2Q954.18 134.5 943.68 140.25Q933.18 146 919.68 146Q906.48 146 896.33 140.25Q886.18 134.5 880.43 124.25Q874.68 114 874.68 100.5Q874.68 87 880.58 76.6Q886.48 66.2 896.93 60.2Q907.38 54.2 920.88 54.2ZM925.78 144.3Q931.98 143.7 935.93 138.35Q939.88 133 941.23 122.85Q942.58 112.7 940.88 98.1Q939.18 83.4 935.58 73.8Q931.98 64.2 926.78 59.8Q921.58 55.4 915.08 56Q908.68 56.7 904.78 62.15Q900.88 67.6 899.68 77.7Q898.48 87.8 900.18 102.2Q901.88 116.7 905.53 126.3Q909.18 135.9 914.38 140.4Q919.58 144.9 925.78 144.3ZM1006.32 55.6L1006.32 138.5Q1006.32 139.8 1006.92 140.6Q1007.52 141.4 1008.82 141.7L1014.22 142.6Q1015.32 142.8 1015.32 143.3Q1015.32 144 1014.42 144L974.22 144Q973.92 144 973.67 143.8Q973.42 143.6 973.42 143.4Q973.42 143.1 973.62 142.95Q973.82 142.8 974.32 142.7L980.12 141.7Q981.42 141.3 981.97 140.55Q982.52 139.8 982.52 138.5L982.52 65.5Q982.52 64.9 982.22 64.55Q981.92 64.2 981.22 64.2L974.62 64.2Q974.22 64.2 974.02 64.05Q973.82 63.9 973.82 63.5Q973.82 63.1 974.07 63Q974.32 62.9 974.62 62.8L1003.22 54.8Q1004.22 54.6 1004.57 54.5Q1004.92 54.4 1005.32 54.4Q1005.82 54.4 1006.07 54.75Q1006.32 55.1 1006.32 55.6ZM1004.42 75.3L1003.42 74.3L1007.02 71Q1016.92 62.3 1024.17 58.3Q1031.42 54.3 1037.72 54.3Q1046.82 54.3 1051.92 60Q1057.02 65.7 1058.62 77.9L1066.12 137.9Q1066.32 139.5 1066.97 140.55Q1067.62 141.6 1069.12 141.8L1074.02 142.7Q1074.62 142.7 1074.82 142.9Q1075.02 143.1 1075.02 143.4Q1075.02 143.6 1074.77 143.8Q1074.52 144 1074.12 144L1033.12 144Q1032.22 144 1032.22 143.3Q1032.22 142.9 1033.32 142.6L1039.02 141.7Q1040.62 141.4 1041.27 140.4Q1041.92 139.4 1041.62 137.9L1035.12 80.3Q1034.12 72.3 1031.32 68.55Q1028.52 64.8 1023.02 64.8Q1019.22 64.8 1015.67 66.65Q1012.12 68.5 1007.92 72.2Z"/>
<path id="caret" d="M200.13 104L232.31 33.8L264.48 104L244.13 104L232.31 78.2L220.48 104Z"/>
</g>
</svg>
